<svg width="64" height="64" viewBox="0 0 64 64" fill="none" xmlns="http://www.w3.org/2000/svg">
<g clip-path="url(#clip0_12_1179)">
<path d="M64 0H0V22.2123V24.022V64H20.6819H23.6497H64V0ZM60.9805 20.382L31.8811 8.55195L42.4081 3.01955H47.2787L60.9805 20.2786V20.382ZM30.7332 8.08661L18.2724 3.01955H40.3606L30.7332 8.08661ZM27.2173 9.93763L4.39489 21.9331L18.7067 6.46308L27.2173 9.93763ZM3.46421 23.5049L28.3652 10.403L60.8977 23.6394L32.4809 51.2186L3.46421 23.5049ZM31.7984 51.8804L22.4915 60.9184L4.17773 25.5007L31.7984 51.8804ZM60.9494 27.8378L42.1083 60.4117L34.6731 53.3075L60.9494 27.8378ZM60.9805 18.7584L48.4886 3.01955H60.9805V18.7584ZM3.01955 3.01955H17.7657L3.01955 18.9549V3.01955ZM3.01955 60.9908V29.8646L19.1204 60.9908H3.01955ZM33.9906 53.9796L41.3327 60.9908H26.7623L33.9906 53.9796ZM42.8735 60.9908L60.9805 29.6785V60.9804H42.8735V60.9908Z" fill="#4F3E3A"/>
</g>
<defs>
<clipPath id="clip0_12_1179">
<rect width="64" height="64" fill="white"/>
</clipPath>
</defs>
</svg>
