<svg width="275" height="62" viewBox="0 0 275 62" fill="none" xmlns="http://www.w3.org/2000/svg">
<path d="M123.45 28.19C122.14 29.04 120.72 29.68 119.18 30.11C117.65 30.54 116.12 30.75 114.59 30.75C112.95 30.75 111.3 30.5 109.64 30C107.98 29.5 106.49 28.75 105.16 27.77C103.84 26.79 102.75 25.55 101.91 24.06C101.07 22.57 100.65 20.84 100.65 18.88C100.65 16.89 101.07 15.15 101.91 13.65C102.75 12.15 103.83 10.9 105.16 9.91C106.48 8.92 107.98 8.17 109.64 7.68C111.3 7.19 112.95 6.94 114.59 6.94C116.12 6.94 117.65 7.15 119.18 7.58C120.71 8.01 122.13 8.65 123.45 9.5L122.5 11.17C121.58 10.1 120.47 9.25 119.15 8.63C117.84 8.01 116.32 7.71 114.59 7.73C112.88 7.75 111.38 8.06 110.06 8.67C108.75 9.27 107.65 10.07 106.76 11.06C105.87 12.06 105.2 13.21 104.74 14.54C104.28 15.86 104.05 17.25 104.05 18.69C104.05 20.18 104.28 21.6 104.74 22.96C105.2 24.32 105.88 25.51 106.77 26.54C107.67 27.57 108.77 28.38 110.08 28.98C111.39 29.58 112.9 29.88 114.61 29.88C116.36 29.86 117.88 29.55 119.19 28.96C120.49 28.37 121.59 27.56 122.49 26.53L123.45 28.19Z" fill="#4F3E3A"/>
<path d="M147.4 7.36L146.84 8.34H137.62L137.55 30.32H134.6V8.35H124.76L125.32 7.37H147.4V7.36Z" fill="#4F3E3A"/>
<path d="M152.65 13.92H165.58L165.02 14.9H152.65V29.34H166.95L166.39 30.32H149.37V7.36H169.38L168.82 8.34H152.65V13.92Z" fill="#4F3E3A"/>
<path d="M169.87 29.34L182.57 7.36H182.9L195.63 29.34H197.07V32.98H195.76V30.32H169.25V32.98H167.94V29.34H169.87ZM171.01 29.34H191.81L181.77 11.95H181.05L171.01 29.34Z" fill="#4F3E3A"/>
<path d="M202.97 13.92H215.9L215.33 14.91H202.96V29.35H221L220.44 30.33H199.67V7.36H219.68L219.12 8.34H202.95V13.92H202.97Z" fill="#4F3E3A"/>
<path d="M227.24 13.92H245.94V7.36H249.22V30.32H245.94V14.91H227.24V30.33H223.96V7.36H227.24V13.92Z" fill="#4F3E3A"/>
<path d="M274.19 7.36L273.63 8.34H264.41L264.34 30.32H261.39V8.35H251.55L252.11 7.37H274.19V7.36Z" fill="#4F3E3A"/>
<path d="M164.84 46.43C164.47 46.95 163.79 47.25 163.04 47.25C161.65 47.25 160.76 46.36 160.76 44.98C160.76 43.71 161.65 42.71 163.03 42.71C163.83 42.71 164.47 43.03 164.77 43.48L164.26 43.96C163.96 43.62 163.54 43.45 163.06 43.45C162.15 43.45 161.55 44.06 161.55 44.98C161.55 45.9 162.18 46.51 163.09 46.51C163.65 46.51 164.08 46.29 164.38 45.93L164.84 46.43Z" fill="#4F3E3A"/>
<path d="M167.41 42.76H171.16V43.48H169.67V47.19H168.9V43.48H167.41V42.76Z" fill="#4F3E3A"/>
<path d="M175.87 42.71C177.13 42.71 178.14 43.66 178.14 44.98C178.14 46.29 177.13 47.25 175.87 47.25C174.62 47.25 173.6 46.3 173.6 44.98C173.61 43.7 174.6 42.71 175.87 42.71ZM175.87 46.52C176.69 46.52 177.34 45.91 177.34 44.99C177.34 44.06 176.64 43.46 175.87 43.46C175.08 43.46 174.4 44.07 174.4 44.99C174.4 45.9 175.09 46.52 175.87 46.52Z" fill="#4F3E3A"/>
<path d="M181.26 42.76H181.94L183.52 44.82L185.05 42.76H185.72V47.2H184.95V44.13L183.6 45.89H183.4L182.02 44.12V47.2H181.25V42.76H181.26Z" fill="#4F3E3A"/>
<path d="M190.57 42.76H191.15L193.1 47.2H192.29L191.86 46.22H189.84L189.42 47.2H188.63L190.57 42.76ZM190.12 45.56H191.58L190.85 43.87L190.12 45.56Z" fill="#4F3E3A"/>
<path d="M194.96 42.76H198.71V43.48H197.22V47.19H196.45V43.48H194.96V42.76Z" fill="#4F3E3A"/>
<path d="M203.42 42.71C204.68 42.71 205.69 43.66 205.69 44.98C205.69 46.29 204.68 47.25 203.42 47.25C202.17 47.25 201.15 46.3 201.15 44.98C201.15 43.7 202.15 42.71 203.42 42.71ZM203.42 46.52C204.24 46.52 204.89 45.91 204.89 44.99C204.89 44.06 204.19 43.46 203.42 43.46C202.63 43.46 201.95 44.07 201.95 44.99C201.95 45.9 202.64 46.52 203.42 46.52Z" fill="#4F3E3A"/>
<path d="M211.51 43.48H209.82V44.08C209.82 46.57 209.14 47.24 208.44 47.22C208.36 47.22 208.26 47.21 208.17 47.2V46.46C208.66 46.52 209.07 46.23 209.07 43.74V42.76H212.28V47.2H211.51V43.48Z" fill="#4F3E3A"/>
<path d="M217.67 42.71C218.93 42.71 219.94 43.66 219.94 44.98C219.94 46.29 218.93 47.25 217.67 47.25C216.42 47.25 215.4 46.3 215.4 44.98C215.4 43.7 216.39 42.71 217.67 42.71ZM217.67 46.52C218.49 46.52 219.14 45.91 219.14 44.99C219.14 44.06 218.44 43.46 217.67 43.46C216.88 43.46 216.2 44.07 216.2 44.99C216.2 45.9 216.88 46.52 217.67 46.52Z" fill="#4F3E3A"/>
<path d="M223.05 42.76H226.28V43.48H223.81V47.19H223.04V42.76H223.05Z" fill="#4F3E3A"/>
<path d="M229.2 47.2V42.76H229.97V45.83L232.4 42.76H233.05V47.2H232.28V44.13L229.84 47.2H229.2Z" fill="#4F3E3A"/>
<path d="M239.93 47.2H239.16V45.42C238.91 45.56 238.39 45.7 237.94 45.7C236.98 45.7 236.23 45.28 236.23 44.21V42.76H237V43.77C237 44.65 237.34 44.98 238.06 44.98C238.41 44.98 238.85 44.87 239.16 44.67V42.76H239.93V47.2Z" fill="#4F3E3A"/>
<path d="M243.28 42.76H246.58V43.48H244.05V44.6H246.41V45.3H244.05V46.48H246.64V47.2H243.28V42.76Z" fill="#4F3E3A"/>
<path d="M253.68 46.43C253.31 46.95 252.63 47.25 251.88 47.25C250.49 47.25 249.6 46.36 249.6 44.98C249.6 43.71 250.49 42.71 251.87 42.71C252.67 42.71 253.31 43.03 253.61 43.48L253.1 43.96C252.8 43.62 252.38 43.45 251.9 43.45C250.99 43.45 250.39 44.06 250.39 44.98C250.39 45.9 251.02 46.51 251.93 46.51C252.49 46.51 252.92 46.29 253.22 45.93L253.68 46.43Z" fill="#4F3E3A"/>
<path d="M256.68 42.76H257.45V44.71L259.44 42.76H260.44L258.42 44.75L260.58 47.2H259.56L257.84 45.27L257.44 45.66V47.21H256.67V42.76H256.68Z" fill="#4F3E3A"/>
<path d="M264.85 42.76H265.43L267.38 47.2H266.57L266.14 46.22H264.12L263.7 47.2H262.91L264.85 42.76ZM264.4 45.56H265.86L265.13 43.87L264.4 45.56Z" fill="#4F3E3A"/>
<path d="M273 45.64H272.02L270.77 47.2H269.85L271.23 45.51C270.56 45.34 270.17 44.88 270.17 44.21C270.17 43.4 270.75 42.76 271.97 42.76H273.78V47.2H273.01V45.64H273ZM273 44.93V43.48H271.9C271.22 43.48 270.96 43.78 270.96 44.21C270.96 44.6 271.29 44.9 271.83 44.93H273Z" fill="#4F3E3A"/>
<path d="M161 50.7H161.77V52.65L163.76 50.7H164.76L162.74 52.69L164.9 55.14H163.88L162.16 53.21L161.76 53.6V55.15H160.99V50.7H161Z" fill="#4F3E3A"/>
<path d="M170.59 51.42H168.9V52.02C168.9 54.51 168.22 55.18 167.52 55.16C167.44 55.16 167.34 55.15 167.25 55.14V54.4C167.74 54.46 168.15 54.17 168.15 51.68V50.7H171.36V55.14H170.59V51.42Z" fill="#4F3E3A"/>
<path d="M174.71 55.14V50.7H175.48V53.77L177.91 50.7H178.56V55.14H177.79V52.07L175.35 55.14H174.71Z" fill="#4F3E3A"/>
<path d="M185 53.25H182.67V55.13H181.9V50.7H182.67V52.53H185V50.7H185.77V55.14H185V53.25Z" fill="#4F3E3A"/>
<path d="M189.12 55.14V50.7H189.89V53.77L192.32 50.7H192.97V55.14H192.2V52.07L189.76 55.14H189.12Z" fill="#4F3E3A"/>
<path d="M196.32 50.7H197.09V52.65L199.08 50.7H200.08L198.06 52.69L200.22 55.14H199.2L197.48 53.21L197.08 53.6V55.15H196.31V50.7H196.32Z" fill="#4F3E3A"/>
<path d="M204.49 50.7H205.07L207.02 55.14H206.21L205.78 54.16H203.76L203.33 55.14H202.54L204.49 50.7ZM204.04 53.5H205.5L204.77 51.81L204.04 53.5Z" fill="#4F3E3A"/>
<path d="M150.31 38.38H149.39V59.6H150.31V38.38Z" fill="#4F3E3A"/>
<path d="M61.89 0H0V21.48V23.23V61.89H20H22.87H61.89V0ZM58.97 19.71L30.83 8.27L41.01 2.92H45.72L58.97 19.61V19.71ZM29.72 7.82L17.67 2.92H39.03L29.72 7.82ZM26.32 9.61L4.25 21.21L18.09 6.25L26.32 9.61ZM3.35 22.73L27.43 10.06L58.89 22.86L31.41 49.53L3.35 22.73ZM30.75 50.17L21.75 58.91L4.04 24.66L30.75 50.17ZM58.94 26.92L40.72 58.42L33.53 51.55L58.94 26.92ZM58.97 18.14L46.89 2.92H58.97V18.14ZM2.92 2.92H17.18L2.92 18.33V2.92ZM2.92 58.98V28.88L18.49 58.98H2.92ZM32.87 52.2L39.97 58.98H25.88L32.87 52.2ZM41.46 58.98L58.97 28.7V58.97H41.46V58.98Z" fill="#4F3E3A"/>
<path d="M89.2899 42.79V55.18H87.5199V43.32H77.4199V55.18H75.6499V42.79H89.2899Z" fill="#4F3E3A"/>
<path d="M91.1498 55.18H90.5298L97.6798 42.79H97.8598L105.03 55.18H102.98L97.2598 45.26H96.8698L91.1498 55.18Z" fill="#4F3E3A"/>
<path d="M108.36 46.86V55.18H106.59V42.79H108.36V46.33H110.56C110.87 45.7 111.27 45.16 111.78 44.68C112.29 44.21 112.85 43.82 113.47 43.5C114.09 43.19 114.74 42.95 115.44 42.79C116.13 42.63 116.81 42.55 117.49 42.55C118.38 42.55 119.27 42.68 120.16 42.95C121.06 43.22 121.87 43.62 122.59 44.15C123.31 44.69 123.9 45.36 124.35 46.17C124.8 46.98 125.03 47.92 125.03 48.99C125.03 50.05 124.8 50.99 124.35 51.79C123.9 52.59 123.31 53.26 122.59 53.79C121.87 54.32 121.06 54.72 120.16 54.99C119.26 55.26 118.37 55.4 117.49 55.4C116.6 55.4 115.71 55.26 114.82 54.99C113.92 54.72 113.12 54.32 112.4 53.79C111.69 53.26 111.1 52.59 110.65 51.79C110.2 50.99 109.97 50.05 109.97 48.99C109.97 48.2 110.09 47.49 110.34 46.85H108.36V46.86ZM111.79 48.9C111.79 49.7 111.91 50.47 112.16 51.2C112.41 51.93 112.77 52.58 113.26 53.13C113.74 53.69 114.34 54.12 115.05 54.45C115.76 54.78 116.57 54.94 117.49 54.94C118.41 54.94 119.23 54.78 119.93 54.46C120.64 54.14 121.23 53.71 121.71 53.17C122.19 52.63 122.55 52 122.8 51.29C123.05 50.58 123.18 49.84 123.19 49.06C123.19 48.26 123.06 47.49 122.81 46.75C122.56 46.01 122.19 45.36 121.7 44.8C121.22 44.24 120.62 43.79 119.91 43.46C119.2 43.13 118.39 42.97 117.47 42.98C116.55 42.99 115.73 43.16 115.03 43.48C114.33 43.8 113.73 44.24 113.25 44.77C112.77 45.31 112.41 45.93 112.16 46.65C111.92 47.37 111.79 48.12 111.79 48.9Z" fill="#4F3E3A"/>
<path d="M138.71 54.03C138 54.49 137.23 54.84 136.41 55.07C135.58 55.3 134.76 55.42 133.93 55.42C133.04 55.42 132.15 55.28 131.26 55.01C130.36 54.74 129.56 54.34 128.84 53.81C128.13 53.28 127.54 52.61 127.09 51.81C126.64 51.01 126.41 50.07 126.41 49.01C126.41 47.94 126.64 46.99 127.09 46.19C127.54 45.38 128.13 44.71 128.84 44.17C129.55 43.63 130.36 43.23 131.26 42.97C132.16 42.7 133.05 42.57 133.93 42.57C134.76 42.57 135.58 42.68 136.41 42.92C137.24 43.15 138 43.5 138.71 43.96L138.2 44.86C137.7 44.28 137.1 43.82 136.39 43.49C135.68 43.15 134.86 42.99 133.93 43C133.01 43.01 132.19 43.18 131.49 43.5C130.79 43.82 130.19 44.26 129.71 44.79C129.23 45.33 128.87 45.95 128.62 46.67C128.37 47.38 128.25 48.13 128.25 48.91C128.25 49.71 128.37 50.48 128.62 51.21C128.87 51.94 129.23 52.59 129.72 53.14C130.2 53.7 130.8 54.13 131.51 54.46C132.22 54.79 133.03 54.95 133.95 54.95C134.89 54.94 135.72 54.77 136.42 54.45C137.12 54.13 137.72 53.69 138.2 53.14L138.71 54.03Z" fill="#4F3E3A"/>
<path d="M83.2001 14.91L83.7901 13.93H94.0301C93.2901 12.14 92.1001 10.66 90.4901 9.5C88.8701 8.34 86.8501 7.75 84.4201 7.73C82.6901 7.71 81.1701 8.01 79.8601 8.63C78.5501 9.25 77.4301 10.1 76.5101 11.17L75.5601 9.5C76.8701 8.65 78.2901 8.01 79.8301 7.58C81.3601 7.15 82.8901 6.94 84.4201 6.94C86.0601 6.94 87.7101 7.19 89.3701 7.68C91.0301 8.17 92.5201 8.92 93.8501 9.91C95.1701 10.91 96.2601 12.15 97.1001 13.65C97.9401 15.15 98.3601 16.89 98.3601 18.88C98.3601 20.85 97.9401 22.58 97.1001 24.06C96.2601 25.55 95.1801 26.78 93.8501 27.77C92.5301 28.75 91.0301 29.5 89.3701 30C87.7101 30.5 86.0601 30.75 84.4201 30.75C82.8901 30.75 81.3601 30.54 79.8301 30.11C78.3001 29.68 76.8801 29.04 75.5601 28.19L76.5101 26.52C77.4101 27.55 78.5101 28.36 79.8101 28.95C81.1101 29.54 82.6401 29.85 84.3901 29.87C86.1001 29.87 87.6001 29.57 88.9201 28.97C90.2301 28.37 91.3401 27.55 92.2301 26.53C93.1301 25.5 93.8001 24.31 94.2601 22.95C94.7201 21.59 94.9501 20.17 94.9501 18.68C94.9501 17.39 94.7601 16.13 94.3901 14.91H83.2001Z" fill="#4F3E3A"/>
</svg>
