<svg width="85" height="85" viewBox="0 0 85 85" fill="none" xmlns="http://www.w3.org/2000/svg">
<path d="M78.6799 8.6H76.0899V5.84C76.0899 5.27 75.7999 4.98 75.2299 4.98H71.9499C71.3799 4.98 70.7399 5.27 70.7399 5.84V8.6H68.3199C67.7499 8.6 67.1099 8.89 67.1099 9.46V12.57C67.1099 13.14 67.7499 13.78 68.3199 13.78H70.7399V16.02C70.7399 16.59 71.3799 17.23 71.9499 17.23H75.2299C75.7999 17.23 76.0899 16.59 76.0899 16.02V13.78H78.6799C79.2499 13.78 79.5399 13.14 79.5399 12.57V9.46C79.5399 8.9 79.2499 8.6 78.6799 8.6ZM77.4699 11.71H75.2299C74.6599 11.71 74.0199 12 74.0199 12.57V15.16H72.8099V12.57C72.8099 12 72.5199 11.71 71.9499 11.71H69.1899V10.67H71.9499C72.5199 10.67 72.8099 10.03 72.8099 9.46V7.04H74.0199V9.46C74.0199 10.03 74.6599 10.67 75.2299 10.67H77.4699V11.71Z" fill="#65AAAF"/>
<path d="M78.53 1.16C77.02 0.4 75.34 0 73.65 0C68.95 0.01 64.78 3.03 63.31 7.49C61.97 7.57 60.63 7.42 59.33 7.07L56.51 6.3C52.18 5.12 47.72 7.68 46.54 12C46.3 12.87 46.21 13.77 46.27 14.67C46.46 17.72 47.2 20.72 48.45 23.51C48.46 23.54 48.49 23.58 48.51 23.61C49.87 26.61 50.57 29.87 50.55 33.17V37.16C50.55 39.29 52.28 41.02 54.41 41.02C55.37 41.02 56.3 40.67 57.02 40.04C58.73 38.56 59.71 36.41 59.7 34.15V31.98C59.69 30.42 60.95 29.15 62.51 29.14C62.52 29.14 62.52 29.14 62.53 29.14C63.27 29.13 63.99 29.41 64.53 29.93C65.08 30.46 65.39 31.19 65.39 31.96V34.15C65.4 36.42 66.4 38.57 68.13 40.04C68.85 40.67 69.77 41.02 70.73 41.02C72.85 41.01 74.55 39.28 74.53 37.16V33.17C74.53 30.01 75.25 26.88 76.73 23.61C76.74 23.59 76.75 23.56 76.76 23.54C77.13 22.72 77.45 21.89 77.73 21.03C83.32 18.76 86.01 12.38 83.73 6.79C82.74 4.35 80.89 2.35 78.53 1.16ZM74.85 22.75C74.84 22.78 74.82 22.8 74.81 22.83C73.23 26.35 72.46 29.74 72.46 33.17V37.16C72.48 38.12 71.72 38.92 70.76 38.94C70.75 38.94 70.73 38.94 70.72 38.94C70.26 38.94 69.82 38.77 69.48 38.46C68.21 37.38 67.47 35.81 67.46 34.14V31.95C67.46 29.25 65.27 27.06 62.57 27.06C62.56 27.06 62.54 27.06 62.53 27.06H62.52C59.82 27.06 57.62 29.25 57.62 31.96V31.97V34.14C57.62 35.8 56.9 37.37 55.65 38.46C55.31 38.77 54.86 38.94 54.4 38.94C53.42 38.94 52.62 38.15 52.61 37.16V37.15V33.16C52.63 29.61 51.89 26.09 50.43 22.85C50.41 22.81 50.4 22.77 50.38 22.74C49.2 20.15 48.51 17.37 48.34 14.53C48.12 11.2 50.63 8.31 53.97 8.09C54.64 8.04 55.31 8.11 55.96 8.29L58.78 9.06C60.1 9.42 61.47 9.59 62.84 9.57C62.09 15.54 66.32 20.99 72.3 21.74C73.3 21.86 74.3 21.85 75.3 21.7C75.15 22.06 75.01 22.41 74.85 22.75ZM81.53 14.89C80.03 17.87 76.98 19.75 73.65 19.76C68.76 19.76 64.8 15.8 64.8 10.91C64.8 6.02 68.76 2.06 73.65 2.06C75.02 2.06 76.38 2.38 77.6 2.99C81.97 5.21 83.73 10.53 81.53 14.89Z" fill="#65AAAF"/>
<path d="M46.04 54.53C44.54 54.17 43.06 53.69 41.63 53.1C41.85 52.8 42.07 52.47 42.29 52.11C44.97 47.72 45.33 42.23 43.27 37.42L42.8 36.33C43.3 35.75 43.58 35.02 43.59 34.25C43.62 33.22 43.12 32.25 42.27 31.67V26.25C42.27 18.56 36 12.24 28.31 12.24C20.59 12.27 14.34 18.53 14.32 26.25V31.73C13.56 32.35 13.11 33.28 13.09 34.26C13.09 35 13.36 35.71 13.83 36.28L12.92 38.95C11.42 43.23 11.89 47.94 14.2 51.84C14.48 52.3 14.78 52.74 15.11 53.15C13.62 53.71 12.09 54.17 10.54 54.54C4.35002 56.01 -0.00998283 61.54 1.71663e-05 67.9V83.48C1.71663e-05 84.06 0.460017 84.53 1.04002 84.54H55.54C56.12 84.53 56.59 84.06 56.61 83.48V67.89C56.6 61.53 52.23 55.99 46.04 54.53ZM40.52 51.02C40.27 51.44 39.99 51.84 39.68 52.22C39.09 51.93 38.49 51.63 37.9 51.31L35.89 50.21V47.46C37.95 45.77 39.36 43.44 39.91 40.84L40.65 37.41C40.76 37.4 40.88 37.38 40.99 37.36L41.36 38.22C43.17 42.38 42.85 47.15 40.52 51.02ZM22.77 51.57V48.78C26.21 50.64 30.35 50.66 33.81 48.84V51.57C32.08 53.46 30.23 54.46 28.29 54.46C26.35 54.46 24.49 53.46 22.77 51.57ZM25.77 56.12L21.17 59.66L19.05 53.68L20.98 52.71C22.44 54.4 24.06 55.55 25.77 56.12ZM35.66 52.63C35.7 52.59 35.73 52.54 35.76 52.49L37.52 53.45L35.39 59.65L30.8 56.12C32.54 55.54 34.19 54.36 35.66 52.63ZM16.38 26.24C16.4 19.66 21.72 14.33 28.3 14.3C34.85 14.3 40.19 19.7 40.19 26.24V29.22C39.14 27.12 37.02 25.77 34.67 25.69C34.6 25.69 34.54 25.68 34.47 25.68C33.38 25.68 32.27 25.39 31.19 24.97L25.12 22.62C24.8 22.5 24.44 22.54 24.15 22.74L22.16 24.13C21.23 24.78 20.32 25.34 19.43 25.84C18.05 26.62 17.06 27.82 16.37 29.22L16.38 26.24ZM16.29 33.11H16.86C17.43 33.11 17.89 32.66 17.9 32.09C17.9 32.09 17.9 32.09 17.9 32.08C17.9 30.24 18.89 28.55 20.49 27.65C21.44 27.11 22.38 26.52 23.37 25.83L24.91 24.76L30.46 26.91C31.72 27.4 33.05 27.69 34.39 27.75C34.46 27.75 34.53 27.76 34.61 27.76C36.94 27.83 38.8 29.75 38.79 32.08C38.79 32.65 39.25 33.11 39.82 33.11C39.82 33.11 39.82 33.11 39.83 33.11H40.4C41.02 33.11 41.52 33.61 41.52 34.23C41.52 34.85 41.02 35.35 40.4 35.35H39.83C39.34 35.35 38.92 35.69 38.82 36.17L37.91 40.41C36.78 45.69 31.58 49.04 26.3 47.91C22.54 47.1 19.61 44.17 18.8 40.41L17.89 36.17C17.79 35.69 17.37 35.35 16.88 35.35H16.31C15.69 35.35 15.19 34.85 15.19 34.23C15.17 33.61 15.67 33.11 16.29 33.11ZM14.87 39.61L15.64 37.36C15.77 37.39 15.89 37.41 16.02 37.42L16.77 40.85C17.29 43.41 18.67 45.72 20.69 47.38V50.56L18.13 51.84C17.79 52.01 17.45 52.17 17.1 52.33C16.67 51.85 16.29 51.33 15.95 50.78C13.97 47.39 13.57 43.3 14.87 39.61ZM17.7 68.77L24.48 82.45H12.07V73.31C12.08 72.74 11.64 72.26 11.07 72.23C10.5 72.21 10.02 72.66 10 73.23C10 73.24 10 73.25 10 73.26V82.45H2.06002V67.89C2.04002 62.49 5.75002 57.79 11.01 56.54C11.22 56.49 11.41 56.48 11.62 56.43L14.12 61.52C14.29 61.88 14.66 62.1 15.05 62.1C15.62 62.1 16.09 61.63 16.09 61.06C16.09 60.9 16.05 60.74 15.98 60.6L13.65 55.85C14.84 55.48 16.02 55.05 17.17 54.56L19.71 61.7C19.9 62.24 20.5 62.52 21.04 62.32C21.14 62.28 21.24 62.23 21.32 62.16L23.44 60.53L25.04 64.42C25.05 64.44 25.06 64.46 25.07 64.49L23.47 75.74L19.56 67.85C19.3 67.34 18.67 67.14 18.16 67.4C17.66 67.65 17.45 68.27 17.7 68.77ZM29.76 82.46H26.79L25.1 79L27.07 65.04H29.41L31.2 79.53L29.76 82.46ZM29.86 62.96H26.67L25.12 59.21L28.28 56.78L31.39 59.16L29.86 62.96ZM31.53 64.42L33.1 60.5L35.27 62.17C35.72 62.52 36.37 62.43 36.72 61.98C36.79 61.89 36.84 61.79 36.88 61.68L39.39 54.37C40.54 54.9 41.72 55.37 42.92 55.78L32.86 76.15L31.44 64.6C31.47 64.54 31.5 64.48 31.53 64.42ZM54.52 82.46H46.41V73.27C46.41 72.7 45.95 72.23 45.37 72.23C44.8 72.23 44.33 72.69 44.33 73.27V82.46H32.07L44.93 56.4C45.13 56.45 45.35 56.5 45.55 56.55C50.81 57.79 54.52 62.49 54.51 67.89V82.46H54.52Z" fill="#65AAAF"/>
</svg>
