<svg width="83" height="85" viewBox="0 0 83 85" fill="none" xmlns="http://www.w3.org/2000/svg">
<path d="M23.0462 2.68C22.4162 3.2 21.7962 3.75 21.2162 4.32C20.8062 4.72 20.7962 5.37 21.1962 5.78C21.5962 6.19 22.2462 6.2 22.6562 5.8C23.2062 5.27 23.7762 4.76 24.3662 4.27C24.8062 3.9 24.8662 3.25 24.4962 2.81C24.1362 2.39 23.4862 2.33 23.0462 2.68Z" fill="#65AAAF"/>
<path d="M19.7758 9.07C20.1158 8.61 20.0158 7.96 19.5558 7.62C19.1058 7.28 18.4658 7.37 18.1158 7.82C14.4858 12.62 12.3458 18.38 11.9558 24.38C11.7558 27.52 12.0658 30.68 12.8858 33.72C13.0358 34.27 13.5958 34.6 14.1558 34.46C14.7058 34.31 15.0358 33.75 14.8958 33.19C14.1358 30.37 13.8458 27.44 14.0258 24.52C14.3958 18.92 16.3858 13.55 19.7758 9.07Z" fill="#65AAAF"/>
<path d="M0.666012 84.49C0.786012 84.54 0.906012 84.56 1.03601 84.56H81.816C82.386 84.56 82.856 84.1 82.856 83.52C82.856 83.4 82.836 83.29 82.796 83.18L71.716 51.53C71.576 51.12 71.176 50.84 70.746 50.84L55.616 50.8L62.016 42.29C65.946 37.08 67.876 30.82 67.456 24.65C67.036 18.16 64.276 12.04 59.676 7.44C49.736 -2.48 33.656 -2.48 23.716 7.44C19.126 12.04 16.356 18.16 15.936 24.65C15.536 30.69 17.456 36.95 21.376 42.29L27.806 50.84H13.156C12.726 50.84 12.346 51.1 12.186 51.51L0.0660121 83.16C-0.133988 83.69 0.136012 84.29 0.666012 84.49ZM78.186 76.1L80.366 82.49H42.416L42.456 76.39L78.186 76.38V76.1ZM70.006 52.91L73.626 63.26L59.646 63.29L57.976 52.88L70.006 52.91ZM23.026 41.06C19.406 36.12 17.616 30.35 17.996 24.8C18.386 18.81 20.936 13.16 25.176 8.92C34.306 -0.189998 49.076 -0.189998 58.206 8.92C62.446 13.17 64.996 18.82 65.386 24.81C65.776 30.48 63.986 36.25 60.356 41.06L41.686 65.87L23.026 41.06ZM13.856 52.92L29.346 52.91L40.856 68.22C41.196 68.68 41.846 68.77 42.306 68.43C42.386 68.37 42.456 68.3 42.516 68.22L54.056 52.87L55.876 52.88L57.746 64.52C57.826 65.03 58.256 65.4 58.766 65.41L74.346 65.36L77.486 74.32L41.386 74.33C40.816 74.33 40.356 74.79 40.356 75.36L40.346 82.5H27.526L28.456 68.38C28.476 68.1 28.376 67.82 28.176 67.62C27.976 67.42 27.706 67.3 27.416 67.31H8.34601L13.856 52.92ZM7.56601 69.36L26.326 69.34L25.466 82.49H2.54601L7.56601 69.36Z" fill="#65AAAF"/>
<path d="M60.4862 26.15C60.4862 15.69 51.9362 7.18 41.4262 7.18C32.9262 7.16 25.4362 12.78 23.0862 20.95C22.9362 21.5 23.2562 22.07 23.8062 22.22C23.8962 22.25 23.9962 22.26 24.0862 22.26C24.5462 22.26 24.9562 21.95 25.0862 21.5C27.2062 14.24 33.8662 9.25 41.4262 9.24C50.7962 9.24 58.4162 16.83 58.4162 26.15C58.4162 27.81 58.1762 29.46 57.6862 31.05H54.4562C53.1462 31.05 51.8262 30.99 50.5262 30.85C50.1562 30.81 49.7762 30.77 49.3962 30.74C49.5462 30.33 49.7062 29.91 49.8962 29.49C49.9062 29.47 49.9062 29.46 49.9162 29.44C50.6562 27.79 51.0962 26.01 51.2062 24.21C51.3162 22.59 50.6462 21.02 49.4062 19.98C48.0862 18.89 46.3162 18.52 44.6662 18.98L43.1462 19.39C41.9862 19.71 40.7562 19.71 39.5962 19.39L38.0762 18.98C36.4262 18.51 34.6562 18.89 33.3362 19.98C32.0962 21.02 31.4262 22.59 31.5362 24.21C31.6462 26.01 32.0862 27.77 32.8162 29.42C32.8262 29.45 32.8362 29.47 32.8462 29.5C33.0362 29.91 33.1962 30.33 33.3362 30.76C32.9662 30.79 32.5962 30.83 32.2262 30.87C30.9162 31.01 29.6062 31.07 28.2862 31.07H25.1562C24.8862 30.18 24.6962 29.26 24.5762 28.34C24.4962 27.77 23.9762 27.38 23.4162 27.45C22.8462 27.53 22.4562 28.05 22.5262 28.61C23.8162 38.06 31.8862 45.11 41.4262 45.12C51.9362 45.12 60.4862 36.61 60.4862 26.15ZM34.6162 21.63C35.3862 20.94 36.4462 20.69 37.4462 20.96L39.0662 21.4C40.5862 21.81 42.1862 21.81 43.7062 21.4L45.3262 20.96C46.9462 20.52 48.6162 21.47 49.0562 23.09C49.1462 23.41 49.1762 23.75 49.1562 24.08C49.0562 25.65 48.6762 27.2 48.0262 28.64C48.0162 28.66 48.0062 28.68 47.9962 28.7C47.0662 30.78 46.6062 32.77 46.6062 34.8V37.09C46.6162 37.4 46.3762 37.66 46.0562 37.67H46.0462C45.8762 37.67 45.7162 37.61 45.5862 37.5C44.9462 36.97 44.5562 36.19 44.5362 35.36V34.1C44.5462 33.24 44.2162 32.41 43.6062 31.8C43.0062 31.2 42.1862 30.87 41.3362 30.89H41.3262C39.5762 30.88 38.1562 32.29 38.1462 34.04C38.1462 34.07 38.1462 34.09 38.1462 34.12V35.36C38.1362 36.19 37.7662 36.97 37.1262 37.5C37.0062 37.61 36.8462 37.67 36.6762 37.67C36.3462 37.67 36.0862 37.41 36.0662 37.09V34.8C36.0662 32.71 35.6362 30.64 34.7762 28.72C34.7662 28.69 34.7462 28.66 34.7362 28.63C34.0862 27.19 33.6962 25.65 33.5962 24.07C33.5462 23.16 33.9162 22.25 34.6162 21.63ZM41.4262 43.08C34.7662 43.09 28.7162 39.2 25.9462 33.14H28.2962C29.6862 33.14 31.0762 33.07 32.4562 32.93C32.9162 32.88 33.3862 32.84 33.8462 32.8C33.9462 33.47 34.0062 34.14 34.0062 34.81V37.1C34.0062 38.57 35.1962 39.75 36.6662 39.75C37.3362 39.75 37.9762 39.51 38.4862 39.08C39.5762 38.15 40.2062 36.8 40.2162 35.37V34.13C40.1862 33.53 40.6462 33.01 41.2462 32.98C41.2762 32.98 41.3062 32.98 41.3262 32.98C41.6262 32.97 41.9162 33.08 42.1262 33.29C42.3462 33.51 42.4662 33.81 42.4562 34.12V35.38C42.4762 36.82 43.1262 38.17 44.2262 39.09C44.7262 39.52 45.3662 39.76 46.0262 39.76C47.4862 39.75 48.6662 38.57 48.6662 37.11V34.82C48.6662 34.14 48.7262 33.47 48.8462 32.8C49.3262 32.84 49.8162 32.89 50.2962 32.94C51.6762 33.08 53.0662 33.15 54.4462 33.15H56.8862C54.1362 39.2 48.0862 43.08 41.4262 43.08Z" fill="#65AAAF"/>
</svg>
