<svg width="69" height="85" viewBox="0 0 69 85" fill="none" xmlns="http://www.w3.org/2000/svg">
<path d="M22.5918 52.4443H20.3618V50.0443C20.3418 49.4643 19.8618 48.9943 19.2818 48.9943H16.3518C15.7918 49.0043 15.3418 49.4743 15.3518 50.0343V50.0443V52.4443H12.9318C12.3718 52.4443 11.9118 52.9043 11.9118 53.4643V53.4743V56.4043C11.9018 56.9743 12.3518 57.4343 12.9218 57.4443H12.9318H15.3618V59.7143C15.3518 60.2543 15.7718 60.7143 16.3218 60.7243C16.3318 60.7243 16.3518 60.7243 16.3618 60.7243H19.2918C19.8718 60.7343 20.3518 60.2843 20.3718 59.7143V57.4443H22.6018C23.1818 57.4443 23.6418 56.9843 23.6518 56.4043V53.4843C23.6418 52.9043 23.1718 52.4443 22.5918 52.4443ZM21.5718 55.3743H19.2818C18.7318 55.3743 18.2918 55.8243 18.2918 56.3743C18.2918 56.3843 18.2918 56.3943 18.2918 56.4043V58.6543H17.4318V56.4043C17.4118 55.8243 16.9418 55.3643 16.3618 55.3743H13.9818V54.5143H16.3618C16.9418 54.5143 17.4118 54.0543 17.4318 53.4743V51.0543H18.2918V53.4743C18.2718 54.0243 18.7018 54.4843 19.2518 54.5043C19.2618 54.5043 19.2718 54.5043 19.2818 54.5043H21.5718V55.3743Z" fill="#65AAAF"/>
<path d="M6.73189 51.9643C6.16189 51.9643 5.69189 52.4243 5.69189 53.0043V65.4743C5.69189 66.0443 6.15189 66.5143 6.73189 66.5143C7.30189 66.5143 7.77189 66.0543 7.77189 65.4743V52.9943C7.77189 52.4243 7.30189 51.9643 6.73189 51.9643Z" fill="#65AAAF"/>
<path d="M6.73189 47.8643C6.16189 47.8643 5.69189 48.3243 5.69189 48.9043V49.7543C5.69189 50.3243 6.15189 50.7943 6.73189 50.7943C7.30189 50.7943 7.77189 50.3343 7.77189 49.7543V48.9043C7.77189 48.3243 7.30189 47.8643 6.73189 47.8643Z" fill="#65AAAF"/>
<path d="M0.95166 36.0543C0.38166 36.0543 0.00166032 36.4843 0.00166032 37.0543V44.9043C-0.0283397 45.4143 0.35166 45.8543 0.86166 45.8843C0.89166 45.8843 0.92166 45.8843 0.95166 45.8843H1.38166V83.5043C1.40166 84.0843 1.88166 84.5443 2.46166 84.5443H67.3817C67.9517 84.5443 68.3317 84.0843 68.3317 83.5043V7.45433C68.3317 6.88433 67.9517 6.37433 67.3817 6.37433H42.8417C38.0017 -0.445668 28.5417 -2.04567 21.7217 2.80433C14.9017 7.64433 13.3017 17.1043 18.1517 23.9243C20.6117 27.3943 24.4217 29.6643 28.6417 30.1843V36.0643H0.95166V36.0543ZM22.0917 82.4643H13.4617V69.5243H22.0917V82.4643ZM38.3817 82.4643H34.1717V55.8943C34.1717 55.3243 33.7117 54.8543 33.1317 54.8543C32.5617 54.8543 32.0917 55.3143 32.0917 55.8943V82.4643H24.1517V68.5543C24.1517 67.9543 23.6617 67.4643 23.0517 67.4543H12.3617C11.8317 67.4543 11.4017 67.8843 11.4017 68.4143V82.4643H3.45166V45.8843H32.0917V48.6443C32.0917 49.2143 32.5517 49.6843 33.1317 49.6843C33.7017 49.6843 34.1717 49.2243 34.1717 48.6443V45.8843H34.7217C35.2817 45.8843 35.7317 45.4343 35.7317 44.8743V37.0443C35.7317 36.4943 35.2817 36.0443 34.7317 36.0443H30.7317V30.2843C33.5117 30.2443 36.2317 29.4343 38.5817 27.9443L38.3817 82.4643ZM59.1917 8.44433H66.2617V82.4743H59.1917V8.44433ZM49.8717 8.44433H57.1217V82.4743H49.8717V8.44433ZM47.8017 8.44433V82.4743H40.4517L40.6417 26.3743C45.6617 21.8343 47.0617 14.5143 44.0717 8.45433H47.8017V8.44433ZM17.9917 18.9343C17.6217 17.7043 17.4317 16.4243 17.4317 15.1343C17.4317 7.91433 23.2817 2.06433 30.5017 2.06433C37.7217 2.06433 43.5717 7.91433 43.5717 15.1343C43.5717 16.4243 43.3817 17.7143 43.0017 18.9543L36.4717 17.2543C36.6317 16.6243 36.8417 16.0143 37.1117 15.4243C37.1217 15.4143 37.1217 15.3943 37.1317 15.3843C37.7017 14.1143 38.0317 12.7543 38.1217 11.3743C38.2017 10.1243 37.7117 8.90433 36.7717 8.06433C35.7417 7.13433 34.3117 6.79433 32.9717 7.16433L31.7517 7.49433C30.9317 7.72433 30.0617 7.72433 29.2317 7.49433L28.0217 7.16433C25.8417 6.57433 23.6017 7.85433 23.0117 10.0343C22.8917 10.4743 22.8517 10.9243 22.8817 11.3743C22.9717 12.7543 23.3017 14.1043 23.8617 15.3643C23.8717 15.3843 23.8817 15.4043 23.8917 15.4343C24.1617 16.0243 24.3617 16.6343 24.5017 17.2643L17.9917 18.9343ZM32.3517 16.8243C31.8517 16.3143 31.1717 16.0343 30.4617 16.0343C28.9717 16.0543 27.7717 17.2843 27.7917 18.7743V19.7043C27.7917 20.2443 27.5517 20.7643 27.1317 21.1143C27.0817 21.1543 27.0217 21.1743 26.9517 21.1743C26.8517 21.1743 26.7617 21.0943 26.7517 20.9943V19.2743C26.7617 17.6743 26.4317 16.0843 25.7917 14.6243C25.7817 14.5943 25.7817 14.5743 25.7617 14.5443C25.2917 13.4943 25.0117 12.3643 24.9417 11.2143C24.8717 10.1043 25.7017 9.14433 26.8217 9.06433C27.0417 9.04433 27.2717 9.07433 27.4817 9.13433L28.6917 9.46433C29.8717 9.78433 31.1217 9.78433 32.3017 9.46433L33.5117 9.13433C34.1717 8.95433 34.8717 9.12433 35.3817 9.57433C35.8417 9.98433 36.0917 10.5943 36.0417 11.2143C35.9717 12.3543 35.7017 13.4643 35.2317 14.5043C35.2217 14.5243 35.1917 14.6143 35.1817 14.6343C34.5117 16.0843 34.1617 17.6643 34.1617 19.2643V20.9843C34.1617 21.0843 34.0917 21.1643 33.9917 21.1643C33.9317 21.1643 33.8717 21.1443 33.8217 21.1043C33.4017 20.7543 33.1417 20.2443 33.1317 19.6943V18.7543C33.1417 18.0443 32.8617 17.3443 32.3517 16.8243ZM18.7417 20.8743L24.6817 19.3343V21.0043C24.6917 22.2543 25.7017 23.2543 26.9517 23.2543C27.5117 23.2543 28.0517 23.0543 28.4817 22.6843C29.3517 21.9343 29.8517 20.8543 29.8617 19.7043V18.7743C29.8417 18.4243 30.1117 18.1243 30.4617 18.1043C30.6217 18.1043 30.7717 18.1743 30.8817 18.2943C31.0017 18.4243 31.0717 18.5943 31.0617 18.7743V19.7143C31.0717 20.8643 31.5917 21.9543 32.4617 22.6943C32.8817 23.0643 33.4217 23.2643 33.9817 23.2643C35.2217 23.2643 36.2217 22.2543 36.2317 21.0143V19.3343L42.2317 20.9043C40.0317 25.3843 35.4817 28.2243 30.4917 28.2243C25.5017 28.2143 20.9417 25.3643 18.7417 20.8743ZM33.6517 38.1243V43.8143H2.07166V38.1243H33.6517Z" fill="#65AAAF"/>
</svg>
